<?xml version="1.0" encoding="UTF-8"?><svg id="Layer_2" xmlns="http://www.w3.org/2000/svg" viewBox="0 0 2520 2520"><defs><style>.cls-1{fill:#e8450c;stroke-width:0px;}</style></defs><g id="Inner_Bezier_Solid"><path class="cls-1" d="M2520,1260s-133.55,266.15-399.89,374.71c-66.59,27.15-141.49,44.45-224.68,45.26-1.81.02-3.62.03-5.43.03h-630c-77.73,0-145.6,42.23-181.91,105-9.41,16.26-16.69,33.89-21.49,52.54v.01c-4.31,16.76-6.6,34.34-6.6,52.45s2.29,35.69,6.6,52.45c23.3,90.6,105.53,157.55,203.4,157.55s180.1-66.95,203.4-157.55c4.31-16.76,6.6-34.34,6.6-52.45s-2.29-35.69-6.6-52.45v-.01c-4.8-18.65-12.08-36.28-21.49-52.54h224.86c8.64,33.56,13.23,68.74,13.23,105,0,1.81-.01,3.62-.03,5.43-.81,83.19-18.11,158.09-45.26,224.68-108.56,266.34-374.71,399.89-374.71,399.89,0,0-266.5-133.41-374.93-399.46-27.69-67.95-45.07-144.55-45.07-229.79v-.75c0-36.26,4.59-71.44,13.23-105,9.59-37.25,24.16-72.5,42.97-105,4.64-8.04,9.55-15.9,14.71-23.59,50.11-74.75,123.6-132.52,210-162.82,43.53-15.28,90.34-23.59,139.09-23.59h630c18.11,0,35.69-2.29,52.45-6.6,90.6-23.3,157.55-105.53,157.55-203.4s-66.95-180.1-157.55-203.4c-16.76-4.31-34.34-6.6-52.45-6.6s-35.69,2.29-52.45,6.6h-.01c-55.19,14.19-101.6,50.26-129.45,98.4-17.87,30.89-28.09,66.75-28.09,105s10.22,74.11,28.09,105h-671.32c-3.17,12.31-6.88,24.4-11.12,36.24-8.56,24.01-19.25,47-31.85,68.76-32.22,55.73-76.9,103.36-130.21,139.09-7.69,5.16-15.55,10.07-23.59,14.71-61.78,35.75-133.5,56.2-210,56.2-1.81,0-3.62-.01-5.43-.03-83.27-.81-158.2-18.08-224.8-45.2C133,1526.14,0,1259.5,0,1259.5c0,0,132.97-265.94,399.66-374.33,66.63-27.08,141.59-44.33,224.91-45.14,1.81-.02,3.62-.03,5.43-.03h630c77.73,0,145.6-42.23,181.91-105,9.07-15.69,16.18-32.67,20.97-50.59,4.65-17.35,7.12-35.59,7.12-54.41,0-18.11-2.29-35.69-6.6-52.45-23.3-90.6-105.53-157.55-203.4-157.55s-180.1,66.95-203.4,157.55c-4.31,16.76-6.6,34.34-6.6,52.45,0,17.42,2.12,34.34,6.12,50.52,4.78,19.36,12.24,37.66,21.97,54.48h-224.86c-8.64-33.56-13.23-68.74-13.23-105,.06-6.57.21-13.09.46-19.56.03-.68.06-1.37.09-2.05,3.24-76.33,20.08-145.46,45.29-207.4C994.77,133.41,1259.99,0,1259.99,0h.01c2.01,1,268.09,133.43,375.64,398.04,27.61,67.9,44.77,144.51,44.35,229.83.01.71.01,1.42.01,2.13,0,36.26-4.59,71.44-13.23,105-9.59,37.25-24.16,72.5-42.97,105h-4c.67,1.15,1.33,2.3,1.98,3.46v.01c-4.04,6.83-8.27,13.54-12.69,20.12-50.11,74.75-123.6,132.52-210,162.82-43.53,15.28-90.34,23.59-139.09,23.59h-630c-18.11,0-35.69,2.29-52.45,6.6-90.6,23.3-157.55,105.53-157.55,203.4s66.95,180.1,157.55,203.4c16.76,4.31,34.34,6.6,52.45,6.6s35.69-2.29,52.45-6.6h.01c55.19-14.19,101.6-50.26,129.45-98.4,17.87-30.89,28.09-66.75,28.09-105s-10.22-74.11-28.09-105h671.32c2.98-11.57,6.44-22.94,10.36-34.09,8.68-24.78,19.64-48.5,32.61-70.91,31.57-54.59,75.08-101.42,126.97-136.9,8.71-5.96,17.66-11.6,26.83-16.9,61.78-35.75,133.5-56.2,210-56.2h.75c85.24,0,161.84,17.38,229.79,45.07,266.05,108.43,399.46,374.93,399.46,374.93Z"/></g></svg>