<?xml version="1.0" encoding="UTF-8" standalone="no"?>
<svg
   id="Layer_2"
   viewBox="0 0 3300 3300"
   version="1.1"
   sodipodi:docname="logo-darkmode.svg"
   width="3300"
   height="3300"
   inkscape:version="1.3.2 (091e20e, 2023-11-25)"
   xmlns:inkscape="http://www.inkscape.org/namespaces/inkscape"
   xmlns:sodipodi="http://sodipodi.sourceforge.net/DTD/sodipodi-0.dtd"
   xmlns="http://www.w3.org/2000/svg"
   xmlns:svg="http://www.w3.org/2000/svg">
  <sodipodi:namedview
     id="namedview12"
     pagecolor="#ffffff"
     bordercolor="#000000"
     borderopacity="0.25"
     inkscape:showpageshadow="2"
     inkscape:pageopacity="0.0"
     inkscape:pagecheckerboard="0"
     inkscape:deskcolor="#d1d1d1"
     inkscape:zoom="0.27301587"
     inkscape:cx="1260"
     inkscape:cy="1258.1686"
     inkscape:window-width="1392"
     inkscape:window-height="1212"
     inkscape:window-x="0"
     inkscape:window-y="25"
     inkscape:window-maximized="0"
     inkscape:current-layer="Layer_2" />
  <defs
     id="defs8">
    <style
       id="style1">.cls-1{fill:url(#linear-gradient);}.cls-1,.cls-2{stroke-width:0px;}.cls-2{fill:#ccc;}</style>
    <linearGradient
       id="linear-gradient"
       x1="1260"
       y1="2520"
       x2="1260"
       y2="0"
       gradientUnits="userSpaceOnUse">
      <stop
         offset="0"
         stop-color="#ffef00"
         id="stop1" />
      <stop
         offset=".045"
         stop-color="#fce501"
         id="stop2" />
      <stop
         offset=".121"
         stop-color="#f7cc06"
         id="stop3" />
      <stop
         offset=".216"
         stop-color="#eea30e"
         id="stop4" />
      <stop
         offset=".3"
         stop-color="#e57917"
         id="stop5" />
      <stop
         offset=".6"
         stop-color="#d31628"
         id="stop6" />
      <stop
         offset=".9"
         stop-color="#d11384"
         id="stop7" />
      <stop
         offset="1"
         stop-color="#aa15ce"
         id="stop8" />
    </linearGradient>
  </defs>
  <g
     id="Inner_Bezier"
     transform="translate(390,390)">
    <path
       class="cls-1"
       d="m 2520,1260 c 0,0 -133.55,266.15 -399.89,374.71 -66.59,27.15 -141.49,44.45 -224.68,45.26 -1.81,0.02 -3.62,0.03 -5.43,0.03 h -630 c -77.73,0 -145.6,42.23 -181.91,105 -9.41,16.26 -16.69,33.89 -21.49,52.54 v 0.01 c -4.31,16.76 -6.6,34.34 -6.6,52.45 0,18.11 2.29,35.69 6.6,52.45 23.3,90.6 105.53,157.55 203.4,157.55 97.87,0 180.1,-66.95 203.4,-157.55 4.31,-16.76 6.6,-34.34 6.6,-52.45 0,-18.11 -2.29,-35.69 -6.6,-52.45 v -0.01 c -4.8,-18.65 -12.08,-36.28 -21.49,-52.54 h 224.86 c 8.64,33.56 13.23,68.74 13.23,105 0,1.81 -0.01,3.62 -0.03,5.43 -0.81,83.19 -18.11,158.09 -45.26,224.68 C 1526.15,2386.45 1260,2520 1260,2520 1260,2520 993.5,2386.59 885.07,2120.54 857.38,2052.59 840,1975.99 840,1890.75 V 1890 c 0,-36.26 4.59,-71.44 13.23,-105 9.59,-37.25 24.16,-72.5 42.97,-105 4.64,-8.04 9.55,-15.9 14.71,-23.59 50.11,-74.75 123.6,-132.52 210,-162.82 43.53,-15.28 90.34,-23.59 139.09,-23.59 h 630 c 18.11,0 35.69,-2.29 52.45,-6.6 90.6,-23.3 157.55,-105.53 157.55,-203.4 0,-97.87 -66.95,-180.1 -157.55,-203.4 -16.76,-4.31 -34.34,-6.6 -52.45,-6.6 -18.11,0 -35.69,2.29 -52.45,6.6 h -0.01 c -55.19,14.19 -101.6,50.26 -129.45,98.4 -17.87,30.89 -28.09,66.75 -28.09,105 0,38.25 10.22,74.11 28.09,105 h -671.32 c -3.17,12.31 -6.88,24.4 -11.12,36.24 -8.56,24.01 -19.25,47 -31.85,68.76 -32.22,55.73 -76.9,103.36 -130.21,139.09 -7.69,5.16 -15.55,10.07 -23.59,14.71 -61.78,35.75 -133.5,56.2 -210,56.2 -1.81,0 -3.62,-0.01 -5.43,-0.03 -83.27,-0.81 -158.2,-18.08 -224.8,-45.2 C 133,1526.14 0,1259.5 0,1259.5 c 0,0 132.97,-265.94 399.66,-374.33 66.63,-27.08 141.59,-44.33 224.91,-45.14 1.81,-0.02 3.62,-0.03 5.43,-0.03 h 630 c 77.73,0 145.6,-42.23 181.91,-105 9.07,-15.69 16.18,-32.67 20.97,-50.59 4.65,-17.35 7.12,-35.59 7.12,-54.41 0,-18.11 -2.29,-35.69 -6.6,-52.45 C 1440.1,486.95 1357.87,420 1260,420 c -97.87,0 -180.1,66.95 -203.4,157.55 -4.31,16.76 -6.6,34.34 -6.6,52.45 0,17.42 2.12,34.34 6.12,50.52 4.78,19.36 12.24,37.66 21.97,54.48 H 853.23 C 844.59,701.44 840,666.26 840,630 c 0.06,-6.57 0.21,-13.09 0.46,-19.56 0.03,-0.68 0.06,-1.37 0.09,-2.05 3.24,-76.33 20.08,-145.46 45.29,-207.4 C 994.77,133.41 1259.99,0 1259.99,0 h 0.01 c 2.01,1 268.09,133.43 375.64,398.04 27.61,67.9 44.77,144.51 44.35,229.83 0.01,0.71 0.01,1.42 0.01,2.13 0,36.26 -4.59,71.44 -13.23,105 -9.59,37.25 -24.16,72.5 -42.97,105 h -4 c 0.67,1.15 1.33,2.3 1.98,3.46 v 0.01 c -4.04,6.83 -8.27,13.54 -12.69,20.12 -50.11,74.75 -123.6,132.52 -210,162.82 -43.53,15.28 -90.34,23.59 -139.09,23.59 H 630 c -18.11,0 -35.69,2.29 -52.45,6.6 C 486.95,1079.9 420,1162.13 420,1260 c 0,97.87 66.95,180.1 157.55,203.4 16.76,4.31 34.34,6.6 52.45,6.6 18.11,0 35.69,-2.29 52.45,-6.6 h 0.01 c 55.19,-14.19 101.6,-50.26 129.45,-98.4 17.87,-30.89 28.09,-66.75 28.09,-105 0,-38.25 -10.22,-74.11 -28.09,-105 h 671.32 c 2.98,-11.57 6.44,-22.94 10.36,-34.09 8.68,-24.78 19.64,-48.5 32.61,-70.91 31.57,-54.59 75.08,-101.42 126.97,-136.9 8.71,-5.96 17.66,-11.6 26.83,-16.9 61.78,-35.75 133.5,-56.2 210,-56.2 h 0.75 c 85.24,0 161.84,17.38 229.79,45.07 C 2386.59,993.5 2520,1260 2520,1260 Z"
       id="path8"
       style="fill:url(#linear-gradient)" />
  </g>
  <g
     id="Outer_Bezier_Light"
     transform="translate(390.0155,390)">
    <path
       class="cls-2"
       d="M 884.353,2240.793 C 606.506,2134.311 385.439,1913.168 279.061,1635.27 107.911,1520.739 15.61,1354.172 1.821,1328.018 35.95,1969.563 549.962,2483.746 1191.434,2518.148 1165.115,2504.221 998.676,2411.654 884.353,2240.794 Z"
       id="path9" />
    <path
       class="cls-2"
       d="M 279.197,884.379 C 385.882,605.981 607.678,384.577 886.345,278.436 1000.627,107.819 1165.333,15.737 1191.441,1.852 550.337,36.23 36.549,549.841 1.884,1190.869 15.907,1164.362 108.235,998.456 279.196,884.379 Z"
       id="path10" />
    <path
       class="cls-2"
       d="m 1637.814,280.046 c 276.703,106.752 496.823,327.31 602.979,604.307 170.86,114.323 263.428,280.762 277.354,307.081 C 2483.756,550.156 1969.873,36.263 1328.6,1.854 c 26.633,13.938 194.902,106.558 309.214,278.192 z"
       id="path11" />
    <path
       class="cls-2"
       d="m 2241.025,1635.049 c -106.422,278.202 -327.774,499.554 -605.976,605.976 -114.318,170.715 -280.249,263.205 -306.492,277.123 641.296,-34.389 1155.203,-548.295 1189.591,-1189.591 -13.918,26.242 -106.408,192.174 -277.123,306.492 z"
       id="path12" />
  </g>
</svg>
